<?xml version="1.0" standalone="no"?>
<!DOCTYPE svg PUBLIC "-//W3C//DTD SVG 20010904//EN"
 "http://www.w3.org/TR/2001/REC-SVG-20010904/DTD/svg10.dtd">
<svg version="1.0" xmlns="http://www.w3.org/2000/svg"
 width="120.000000pt" height="120.000000pt" viewBox="0 0 120.000000 120.000000"
 preserveAspectRatio="xMidYMid meet">
<metadata>
Created by potrace 1.14, written by Peter Selinger 2001-2017
</metadata>
<g transform="translate(0.000000,120.000000) scale(0.100000,-0.100000)"
fill="#000000" stroke="none">
<path d="M726 989 c-31 -25 -33 -57 -5 -93 25 -31 57 -33 93 -5 31 25 33 57 5
93 -25 31 -57 33 -93 5z"/>
<path d="M726 819 c-31 -25 -33 -57 -5 -93 25 -31 57 -33 93 -5 31 25 33 57 5
93 -25 31 -57 33 -93 5z"/>
<path d="M556 659 c-31 -25 -33 -57 -5 -93 25 -31 57 -33 93 -5 31 25 33 57 5
93 -25 31 -57 33 -93 5z"/>
<path d="M720 660 c-43 -43 -11 -120 50 -120 38 0 70 32 70 70 0 17 -9 39 -20
50 -11 11 -33 20 -50 20 -17 0 -39 -9 -50 -20z"/>
<path d="M386 489 c-31 -25 -33 -57 -5 -93 25 -31 57 -33 93 -5 31 25 33 57 5
93 -25 31 -57 33 -93 5z"/>
<path d="M556 489 c-31 -25 -33 -57 -5 -93 25 -31 57 -33 93 -5 31 25 33 57 5
93 -25 31 -57 33 -93 5z"/>
<path d="M720 490 c-43 -43 -11 -120 50 -120 38 0 70 32 70 70 0 38 -32 70
-70 70 -17 0 -39 -9 -50 -20z"/>
<path d="M550 320 c-43 -43 -11 -120 50 -120 38 0 70 32 70 70 0 38 -32 70
-70 70 -17 0 -39 -9 -50 -20z"/>
<path d="M720 320 c-43 -43 -11 -120 50 -120 38 0 70 32 70 70 0 38 -32 70
-70 70 -17 0 -39 -9 -50 -20z"/>
</g>
</svg>
